<?xml version="1.0" standalone="no"?>
<svg xmlns:xlink="http://www.w3.org/1999/xlink" id="wave" style="transform:rotate(180deg); transition: 0.3s" viewBox="0 0 1440 240" version="1.1" xmlns="http://www.w3.org/2000/svg"><defs><linearGradient id="sw-gradient-0" x1="0" x2="0" y1="1" y2="0"><stop stop-color="rgba(235, 235, 235, 1)" offset="0%"/><stop stop-color="rgba(235, 235, 235, 1)" offset="100%"/></linearGradient></defs><path style="transform:translate(0, 0px); opacity:1" fill="url(#sw-gradient-0)" d="M0,144L48,120C96,96,192,48,288,40C384,32,480,64,576,84C672,104,768,112,864,124C960,136,1056,152,1152,132C1248,112,1344,56,1440,36C1536,16,1632,32,1728,68C1824,104,1920,160,2016,160C2112,160,2208,104,2304,88C2400,72,2496,96,2592,92C2688,88,2784,56,2880,56C2976,56,3072,88,3168,104C3264,120,3360,120,3456,104C3552,88,3648,56,3744,64C3840,72,3936,120,4032,124C4128,128,4224,88,4320,88C4416,88,4512,128,4608,152C4704,176,4800,184,4896,188C4992,192,5088,192,5184,196C5280,200,5376,208,5472,192C5568,176,5664,136,5760,136C5856,136,5952,176,6048,176C6144,176,6240,136,6336,116C6432,96,6528,96,6624,108C6720,120,6816,144,6864,156L6912,168L6912,240L6864,240C6816,240,6720,240,6624,240C6528,240,6432,240,6336,240C6240,240,6144,240,6048,240C5952,240,5856,240,5760,240C5664,240,5568,240,5472,240C5376,240,5280,240,5184,240C5088,240,4992,240,4896,240C4800,240,4704,240,4608,240C4512,240,4416,240,4320,240C4224,240,4128,240,4032,240C3936,240,3840,240,3744,240C3648,240,3552,240,3456,240C3360,240,3264,240,3168,240C3072,240,2976,240,2880,240C2784,240,2688,240,2592,240C2496,240,2400,240,2304,240C2208,240,2112,240,2016,240C1920,240,1824,240,1728,240C1632,240,1536,240,1440,240C1344,240,1248,240,1152,240C1056,240,960,240,864,240C768,240,672,240,576,240C480,240,384,240,288,240C192,240,96,240,48,240L0,240Z"/></svg>